<svg width="81" height="80" viewBox="0 0 81 80" fill="none" xmlns="http://www.w3.org/2000/svg">
<path d="M10.3374 20C10.3374 17.3478 11.391 14.8043 13.2664 12.9289C15.1417 11.0536 17.6853 10 20.3374 10H50.3374C52.9896 10 55.5331 11.0536 57.4085 12.9289C59.2839 14.8043 60.3374 17.3478 60.3374 20V77.5C60.3372 77.9522 60.2143 78.3959 59.9819 78.7838C59.7494 79.1717 59.4161 79.4893 59.0175 79.7027C58.6188 79.9161 58.1697 80.0175 57.718 79.9958C57.2663 79.9742 56.8289 79.8305 56.4524 79.58L35.3374 65.505L14.2224 79.58C13.846 79.8305 13.4086 79.9742 12.9569 79.9958C12.5052 80.0175 12.0561 79.9161 11.6574 79.7027C11.2588 79.4893 10.9255 79.1717 10.693 78.7838C10.4606 78.3959 10.3377 77.9522 10.3374 77.5V20ZM20.3374 15C19.0114 15 17.7396 15.5268 16.8019 16.4645C15.8642 17.4021 15.3374 18.6739 15.3374 20V72.83L33.9524 60.42C34.3628 60.147 34.8446 60.0013 35.3374 60.0013C35.8303 60.0013 36.3121 60.147 36.7224 60.42L55.3374 72.83V20C55.3374 18.6739 54.8107 17.4021 53.873 16.4645C52.9353 15.5268 51.6635 15 50.3374 15H20.3374Z" fill="white"/>
<path d="M13.0647 5H51.7247C53.0508 5 54.3226 5.52678 55.2603 6.46447C56.1979 7.40215 56.7247 8.67392 56.7247 10V68.84L57.8397 69.58C58.2162 69.8305 58.6536 69.9742 59.1053 69.9958C59.557 70.0175 60.0061 69.9161 60.4047 69.7027C60.8034 69.4893 61.1367 69.1717 61.3692 68.7838C61.6016 68.3959 61.7245 67.9522 61.7247 67.5V10C61.7247 7.34784 60.6712 4.8043 58.7958 2.92893C56.9204 1.05357 54.3769 0 51.7247 0L21.7247 0C19.9694 4.45922e-05 18.245 0.462128 16.7249 1.33981C15.2047 2.21749 13.9424 3.47985 13.0647 5Z" fill="white"/>
</svg>
