<svg width="32" height="32" viewBox="0 0 32 32" fill="none" xmlns="http://www.w3.org/2000/svg">
<path d="M7.33331 26C10.4444 24.6667 12.4444 23.5556 13.3333 22.6667C14.6666 21.3333 10.6666 21.3333 10.6666 14.6667C10.6666 10.2222 12.4444 8 16 8C19.5555 8 21.3333 10.2222 21.3333 14.6667C21.3333 21.3333 17.3333 21.3333 18.6666 22.6667C19.5555 23.5556 21.5555 24.6667 24.6666 26" stroke="white" stroke-width="2" stroke-linecap="round"/>
<path d="M16 29.3333C23.3638 29.3333 29.3334 23.3638 29.3334 16C29.3334 8.63619 23.3638 2.66666 16 2.66666C8.63622 2.66666 2.66669 8.63619 2.66669 16C2.66669 23.3638 8.63622 29.3333 16 29.3333Z" stroke="white" stroke-width="2" stroke-linecap="square"/>
</svg>
